<?xml version="1.0" encoding="utf-8"?>
<!-- Generator: Adobe Illustrator 19.2.0, SVG Export Plug-In . SVG Version: 6.00 Build 0)  -->
<!DOCTYPE svg PUBLIC "-//W3C//DTD SVG 1.1//EN" "http://www.w3.org/Graphics/SVG/1.1/DTD/svg11.dtd">
<svg version="1.1" id="Layer_1" xmlns="http://www.w3.org/2000/svg" xmlns:xlink="http://www.w3.org/1999/xlink" x="0px" y="0px"
	 width="200px" height="200px" viewBox="0 0 200 200" style="enable-background:new 0 0 200 200;" xml:space="preserve">
<style type="text/css">
	.st0{fill:#FFFFFF;stroke:#83B851;stroke-width:1.4697;stroke-miterlimit:10;}
	.st1{fill:#FFFFFF;stroke:#83B851;stroke-width:3.0496;stroke-miterlimit:10;}
</style>
<g>
	<g>
		<rect x="26.1" y="39" class="st0" width="79.1" height="79.1"/>
		<rect x="20.6" y="32.8" class="st1" width="90.8" height="112.8"/>
		<rect x="26.1" y="39" class="st0" width="79.1" height="79.1"/>
	</g>
	<g>
		<rect x="57.2" y="70.2" class="st0" width="79.1" height="79.1"/>
		<rect x="51.7" y="64" class="st1" width="90.8" height="112.8"/>
		<rect x="57.2" y="70.2" class="st0" width="79.1" height="79.1"/>
	</g>
	<g>
		<rect x="94.8" y="28.4" class="st0" width="79.1" height="79.1"/>
		<rect x="89.3" y="22.2" class="st1" width="90.8" height="112.8"/>
		<rect x="94.8" y="28.4" class="st0" width="79.1" height="79.1"/>
	</g>
	<g>
		<g>
			<circle class="st0" cx="115.4" cy="64.7" r="13.2"/>
			<path class="st0" d="M126.7,89.2v18.5h-22.7V89.2c0-6.3,5.1-11.3,11.3-11.3S126.7,82.9,126.7,89.2z"/>
		</g>
		<g>
			<circle class="st0" cx="151.9" cy="56" r="15.8"/>
			<path class="st0" d="M165.5,85.4v22.2h-27.2V85.4c0-7.5,6.1-13.6,13.6-13.6C159.4,71.8,165.5,77.9,165.5,85.4z"/>
		</g>
	</g>
</g>
<g>
</g>
<g>
</g>
<g>
</g>
<g>
</g>
<g>
</g>
<g>
</g>
<g>
</g>
<g>
</g>
<g>
</g>
<g>
</g>
<g>
</g>
<g>
</g>
<g>
</g>
<g>
</g>
<g>
</g>
</svg>
