<svg xmlns="http://www.w3.org/2000/svg" width="200" height="200" viewBox="0 0 200 200"><style type="text/css">.st0{fill:#FFFFFF;stroke:#8B85B5;stroke-width:1.4697;stroke-miterlimit:10;} .st1{fill:#FFFFFF;stroke:#8B85B5;stroke-width:3.0496;stroke-miterlimit:10;}</style><path class="st0" d="M26.1 39h79.1v79.1h-79.1z"/><path class="st1" d="M20.6 32.8h90.8v112.8h-90.8z"/><path class="st0" d="M26.1 39h79.1v79.1h-79.1zM57.2 70.2h79.1v79.1h-79.1z"/><path class="st1" d="M51.7 64h90.8v112.8h-90.8z"/><path class="st0" d="M57.2 70.2h79.1v79.1h-79.1zM94.8 28.4h79.1v79.1h-79.1z"/><path class="st1" d="M89.3 22.2h90.8v112.8h-90.8z"/><path class="st0" d="M94.8 28.4h79.1v79.1h-79.1z"/><circle class="st0" cx="115.4" cy="64.7" r="13.2"/><path class="st0" d="M126.7 89.2v18.5h-22.7v-18.5c0-6.3 5.1-11.3 11.3-11.3s11.4 5 11.4 11.3z"/><circle class="st0" cx="151.9" cy="56" r="15.8"/><path class="st0" d="M165.5 85.4v22.2h-27.2v-22.2c0-7.5 6.1-13.6 13.6-13.6s13.6 6.1 13.6 13.6z"/></svg>