<?xml version="1.0" encoding="utf-8"?>
<!-- Generator: Adobe Illustrator 19.2.0, SVG Export Plug-In . SVG Version: 6.00 Build 0)  -->
<!DOCTYPE svg PUBLIC "-//W3C//DTD SVG 1.1//EN" "http://www.w3.org/Graphics/SVG/1.1/DTD/svg11.dtd">
<svg version="1.1" id="Layer_1" xmlns="http://www.w3.org/2000/svg" xmlns:xlink="http://www.w3.org/1999/xlink" x="0px" y="0px"
	 width="200px" height="200px" viewBox="0 0 200 200" style="enable-background:new 0 0 200 200;" xml:space="preserve">
<style type="text/css">
	.st0{fill:none;stroke:#83B851;stroke-width:1.1028;stroke-miterlimit:10;}
	.st1{fill:#FFFFFF;}
	.st2{fill:#83B851;}
	.st3{fill:#FFFFFF;stroke:#83B851;stroke-width:3.237;stroke-miterlimit:10;}
	.st4{fill:none;stroke:#83B851;stroke-width:2.2056;stroke-miterlimit:10;}
	.st5{fill:#FFFFFF;stroke:#83B851;stroke-width:3.3084;stroke-miterlimit:10;}
</style>
<g>
	<path class="st0" d="M143.7,161.7H23.5c-6.4,0-11.6-5.2-11.6-11.6V45.2c0-6.4,5.2-11.6,11.6-11.6h120.2c6.4,0,11.6,5.2,11.6,11.6
		v104.9C155.3,156.5,150.1,161.7,143.7,161.7z"/>
	<g>
		<path class="st1" d="M23.5,160c-5.5,0-9.9-4.4-9.9-9.9V45.2c0-5.5,4.4-9.9,9.9-9.9h120.2c5.5,0,9.9,4.4,9.9,9.9v104.9
			c0,5.5-4.4,9.9-9.9,9.9H23.5z"/>
		<path class="st2" d="M143.7,36.9c4.6,0,8.3,3.7,8.3,8.3v104.9c0,4.6-3.7,8.3-8.3,8.3H23.5c-4.6,0-8.3-3.7-8.3-8.3V45.2
			c0-4.6,3.7-8.3,8.3-8.3H143.7 M143.7,33.6H23.5c-6.4,0-11.6,5.2-11.6,11.6v104.9c0,6.4,5.2,11.6,11.6,11.6h120.2
			c6.4,0,11.6-5.2,11.6-11.6V45.2C155.3,38.8,150.1,33.6,143.7,33.6L143.7,33.6z"/>
	</g>
	<line class="st3" x1="14.5" y1="60.7" x2="153.3" y2="60.7"/>
	<line class="st4" x1="14.5" y1="78.5" x2="153.3" y2="78.5"/>
	<line class="st4" x1="14.5" y1="96" x2="153.3" y2="96"/>
	<line class="st4" x1="14.5" y1="112.8" x2="153.3" y2="112.8"/>
	<line class="st4" x1="14.3" y1="129.9" x2="153" y2="129.9"/>
	<line class="st4" x1="14.3" y1="146.4" x2="153" y2="146.4"/>
	<line class="st4" x1="33" y1="158.8" x2="33" y2="60.7"/>
	<line class="st4" x1="55" y1="158.8" x2="55" y2="60.7"/>
	<line class="st4" x1="74.4" y1="158.8" x2="74.4" y2="60.7"/>
	<line class="st4" x1="94.9" y1="159.2" x2="94.9" y2="61.1"/>
	<line class="st4" x1="114.4" y1="158.8" x2="114.4" y2="60.7"/>
	<line class="st4" x1="135.5" y1="158.8" x2="135.5" y2="60.7"/>
	<g>
		<path class="st2" d="M25.4,73c0.1,0.2,0.2,0.3,0.3,0.4c0.1,0.1,0.2,0.2,0.4,0.2c0.1,0,0.3,0.1,0.5,0.1c0.1,0,0.2,0,0.3,0
			c0.1,0,0.2-0.1,0.3-0.1c0.1-0.1,0.2-0.1,0.3-0.3c0.1-0.1,0.1-0.2,0.1-0.4c0-0.2,0-0.3-0.1-0.4s-0.2-0.2-0.4-0.3
			c-0.2-0.1-0.3-0.1-0.5-0.2c-0.2-0.1-0.4-0.1-0.6-0.2c-0.2-0.1-0.4-0.1-0.6-0.2c-0.2-0.1-0.4-0.2-0.5-0.3s-0.3-0.3-0.4-0.5
			s-0.1-0.5-0.1-0.8c0-0.3,0.1-0.6,0.2-0.9c0.1-0.2,0.3-0.5,0.5-0.6c0.2-0.2,0.4-0.3,0.7-0.4s0.5-0.1,0.7-0.1c0.3,0,0.6,0,0.8,0.1
			c0.3,0.1,0.5,0.2,0.7,0.4c0.2,0.2,0.4,0.4,0.5,0.7s0.2,0.6,0.2,1h-1.2c0-0.2,0-0.4-0.1-0.5c-0.1-0.1-0.1-0.2-0.2-0.3
			s-0.2-0.1-0.3-0.2s-0.3,0-0.4,0c-0.1,0-0.2,0-0.3,0s-0.2,0.1-0.3,0.1c-0.1,0.1-0.1,0.1-0.2,0.2c-0.1,0.1-0.1,0.2-0.1,0.3
			c0,0.1,0,0.2,0.1,0.3c0,0.1,0.1,0.2,0.2,0.2c0.1,0.1,0.3,0.1,0.5,0.2s0.5,0.2,0.8,0.3c0.1,0,0.2,0.1,0.4,0.1
			c0.2,0.1,0.4,0.2,0.5,0.3c0.2,0.1,0.3,0.3,0.5,0.6s0.2,0.5,0.2,0.9c0,0.3,0,0.6-0.1,0.8c-0.1,0.3-0.2,0.5-0.4,0.7
			c-0.2,0.2-0.4,0.3-0.7,0.4s-0.6,0.2-1,0.2c-0.3,0-0.6,0-0.9-0.1s-0.5-0.2-0.7-0.4c-0.2-0.2-0.4-0.4-0.5-0.7
			c-0.1-0.3-0.2-0.6-0.2-1h1.2C25.3,72.7,25.3,72.9,25.4,73z"/>
		<path class="st2" d="M43.7,68.1l1.3,4.5h0l1.2-4.5h1.7v6.6h-1.1V70h0l-1.3,4.7h-0.9L43.2,70h0v4.6H42v-6.6H43.7z"/>
		<path class="st2" d="M63.3,69.3v-1.2h4.4v1.2h-1.6v5.4h-1.2v-5.4H63.3z"/>
		<path class="st2" d="M87.1,74.7l-0.9-4.5h0l-0.9,4.5H84l-1.4-6.6h1.2l0.9,4.5h0l0.9-4.5h1.1l0.9,4.5h0l0.9-4.5h1.2l-1.5,6.6H87.1z
			"/>
		<path class="st2" d="M102.5,69.3v-1.2h4.4v1.2h-1.6v5.4h-1.2v-5.4H102.5z"/>
		<path class="st2" d="M126.1,68.1v1.2h-2.6v1.5h2.3v1.1h-2.3v2.7h-1.2v-6.6H126.1z"/>
		<path class="st2" d="M140.4,73c0.1,0.2,0.2,0.3,0.3,0.4c0.1,0.1,0.2,0.2,0.4,0.2c0.1,0,0.3,0.1,0.5,0.1c0.1,0,0.2,0,0.3,0
			c0.1,0,0.2-0.1,0.3-0.1c0.1-0.1,0.2-0.1,0.3-0.3c0.1-0.1,0.1-0.2,0.1-0.4c0-0.2,0-0.3-0.1-0.4s-0.2-0.2-0.4-0.3
			c-0.2-0.1-0.3-0.1-0.5-0.2s-0.4-0.1-0.6-0.2c-0.2-0.1-0.4-0.1-0.6-0.2c-0.2-0.1-0.4-0.2-0.5-0.3c-0.2-0.1-0.3-0.3-0.4-0.5
			c-0.1-0.2-0.1-0.5-0.1-0.8c0-0.3,0.1-0.6,0.2-0.9c0.1-0.2,0.3-0.5,0.5-0.6s0.4-0.3,0.7-0.4c0.2-0.1,0.5-0.1,0.7-0.1
			c0.3,0,0.6,0,0.8,0.1c0.3,0.1,0.5,0.2,0.7,0.4c0.2,0.2,0.4,0.4,0.5,0.7c0.1,0.3,0.2,0.6,0.2,1h-1.2c0-0.2,0-0.4-0.1-0.5
			c-0.1-0.1-0.1-0.2-0.2-0.3c-0.1-0.1-0.2-0.1-0.3-0.2c-0.1,0-0.3,0-0.4,0c-0.1,0-0.2,0-0.3,0c-0.1,0-0.2,0.1-0.3,0.1
			c-0.1,0.1-0.1,0.1-0.2,0.2c0,0.1-0.1,0.2-0.1,0.3c0,0.1,0,0.2,0.1,0.3c0,0.1,0.1,0.2,0.2,0.2c0.1,0.1,0.3,0.1,0.5,0.2
			s0.5,0.2,0.8,0.3c0.1,0,0.2,0.1,0.4,0.1s0.4,0.2,0.5,0.3c0.2,0.1,0.3,0.3,0.5,0.6c0.1,0.2,0.2,0.5,0.2,0.9c0,0.3,0,0.6-0.1,0.8
			c-0.1,0.3-0.2,0.5-0.4,0.7s-0.4,0.3-0.7,0.4c-0.3,0.1-0.6,0.2-1,0.2c-0.3,0-0.6,0-0.9-0.1c-0.3-0.1-0.5-0.2-0.7-0.4
			c-0.2-0.2-0.4-0.4-0.5-0.7c-0.1-0.3-0.2-0.6-0.2-1h1.2C140.3,72.7,140.3,72.9,140.4,73z"/>
	</g>
	<g>
		<path class="st2" d="M66.4,43.6l2.8,9.1h-1.7l-0.6-2h-2.8l-0.6,2h-1.7l2.8-9.1H66.4z M66.5,49.2l-0.9-3.3h0l-1,3.3H66.5z"/>
		<path class="st2" d="M75.3,52c-0.6,0.6-1.4,0.9-2.4,0.9c-1,0-1.8-0.3-2.4-0.9c-0.6-0.6-0.8-1.5-0.8-2.8v-5.7h1.6v5.7
			c0,0.2,0,0.5,0.1,0.7c0,0.2,0.1,0.4,0.2,0.6c0.1,0.2,0.3,0.3,0.5,0.4c0.2,0.1,0.5,0.2,0.8,0.2c0.6,0,1-0.2,1.2-0.5
			s0.3-0.8,0.3-1.5v-5.7h1.6v5.7C76.2,50.5,75.9,51.4,75.3,52z"/>
		<path class="st2" d="M82.1,52.7c-0.4,0.2-0.7,0.3-1.1,0.3c-0.6,0-1.1-0.1-1.5-0.4c-0.5-0.2-0.8-0.6-1.2-1
			c-0.3-0.4-0.6-0.9-0.7-1.5c-0.2-0.6-0.3-1.2-0.3-1.9c0-0.7,0.1-1.3,0.3-1.9s0.4-1.1,0.7-1.5c0.3-0.4,0.7-0.8,1.2-1
			c0.5-0.2,1-0.4,1.5-0.4c0.4,0,0.8,0.1,1.1,0.2s0.7,0.3,1,0.6c0.3,0.3,0.5,0.6,0.7,1c0.2,0.4,0.3,0.9,0.3,1.4h-1.6
			c-0.1-0.5-0.3-0.9-0.6-1.1c-0.3-0.3-0.6-0.4-1-0.4c-0.4,0-0.7,0.1-0.9,0.3c-0.3,0.2-0.5,0.4-0.6,0.7s-0.3,0.6-0.4,1
			c-0.1,0.4-0.1,0.8-0.1,1.2c0,0.4,0,0.8,0.1,1.1c0.1,0.4,0.2,0.7,0.4,1s0.4,0.5,0.6,0.7c0.3,0.2,0.6,0.3,0.9,0.3
			c0.5,0,1-0.2,1.3-0.5c0.3-0.3,0.5-0.8,0.5-1.5h-1.7v-1.5h3.2v4.9h-1.1l-0.2-1C82.7,52.2,82.4,52.5,82.1,52.7z"/>
		<path class="st2" d="M91.1,52c-0.6,0.6-1.4,0.9-2.4,0.9c-1,0-1.8-0.3-2.4-0.9c-0.6-0.6-0.8-1.5-0.8-2.8v-5.7h1.6v5.7
			c0,0.2,0,0.5,0.1,0.7c0,0.2,0.1,0.4,0.2,0.6c0.1,0.2,0.3,0.3,0.5,0.4c0.2,0.1,0.5,0.2,0.8,0.2c0.6,0,1-0.2,1.2-0.5
			s0.3-0.8,0.3-1.5v-5.7H92v5.7C92,50.5,91.7,51.4,91.1,52z"/>
		<path class="st2" d="M94.6,50.5c0.1,0.2,0.2,0.4,0.4,0.5c0.2,0.1,0.3,0.2,0.5,0.3c0.2,0.1,0.4,0.1,0.6,0.1c0.1,0,0.3,0,0.5,0
			s0.3-0.1,0.5-0.2s0.3-0.2,0.4-0.4s0.1-0.3,0.1-0.6c0-0.2-0.1-0.4-0.2-0.6s-0.3-0.3-0.5-0.4c-0.2-0.1-0.4-0.2-0.7-0.3
			c-0.3-0.1-0.5-0.2-0.8-0.3c-0.3-0.1-0.6-0.2-0.8-0.3s-0.5-0.3-0.7-0.5c-0.2-0.2-0.4-0.4-0.5-0.7c-0.1-0.3-0.2-0.6-0.2-1.1
			c0-0.5,0.1-0.9,0.2-1.2s0.4-0.6,0.6-0.9c0.3-0.2,0.6-0.4,0.9-0.5c0.3-0.1,0.7-0.2,1-0.2c0.4,0,0.8,0.1,1.1,0.2
			c0.4,0.1,0.7,0.3,1,0.5c0.3,0.2,0.5,0.5,0.7,0.9s0.2,0.8,0.2,1.3h-1.6c0-0.3-0.1-0.5-0.1-0.7s-0.2-0.3-0.3-0.4
			c-0.1-0.1-0.3-0.2-0.5-0.2c-0.2,0-0.4-0.1-0.6-0.1c-0.1,0-0.3,0-0.4,0.1c-0.1,0-0.3,0.1-0.4,0.2c-0.1,0.1-0.2,0.2-0.3,0.3
			c-0.1,0.1-0.1,0.3-0.1,0.5c0,0.2,0,0.3,0.1,0.4c0.1,0.1,0.2,0.2,0.3,0.3c0.2,0.1,0.4,0.2,0.7,0.3s0.7,0.2,1.1,0.4
			c0.1,0,0.3,0.1,0.6,0.2c0.2,0.1,0.5,0.2,0.7,0.4c0.2,0.2,0.5,0.5,0.6,0.8c0.2,0.3,0.3,0.7,0.3,1.3c0,0.4-0.1,0.8-0.2,1.2
			c-0.1,0.4-0.3,0.7-0.6,0.9c-0.3,0.3-0.6,0.5-1,0.6s-0.8,0.2-1.3,0.2c-0.4,0-0.8-0.1-1.2-0.2s-0.7-0.3-1-0.6
			c-0.3-0.3-0.5-0.6-0.7-1c-0.2-0.4-0.3-0.9-0.3-1.5h1.6C94.5,50,94.5,50.3,94.6,50.5z"/>
		<path class="st2" d="M99.6,45.3v-1.7h6.1v1.7h-2.2v7.4h-1.7v-7.4H99.6z"/>
	</g>
	<polygon class="st5" points="77,119.4 88.1,110.3 102.3,140.5 173,60.7 185.4,75.8 101,151.2 	"/>
</g>
<g>
</g>
<g>
</g>
<g>
</g>
<g>
</g>
<g>
</g>
<g>
</g>
<g>
</g>
<g>
</g>
<g>
</g>
<g>
</g>
<g>
</g>
<g>
</g>
<g>
</g>
<g>
</g>
<g>
</g>
</svg>
