<svg xmlns="http://www.w3.org/2000/svg" width="200" height="200" viewBox="0 0 200 200"><style type="text/css">.st0{fill:none;stroke:#8B85B5;stroke-width:1.1028;stroke-miterlimit:10;} .st1{fill:#FFFFFF;} .st2{fill:#8B85B5;} .st3{fill:#FFFFFF;stroke:#8B85B5;stroke-width:3.237;stroke-miterlimit:10;} .st4{fill:none;stroke:#8B85B5;stroke-width:2.2056;stroke-miterlimit:10;} .st5{fill:#FFFFFF;stroke:#8B85B5;stroke-width:3.3084;stroke-miterlimit:10;}</style><path class="st0" d="M143.7 161.7h-120.2c-6.4 0-11.6-5.2-11.6-11.6v-104.9c0-6.4 5.2-11.6 11.6-11.6h120.2c6.4 0 11.6 5.2 11.6 11.6v104.9c0 6.4-5.2 11.6-11.6 11.6z"/><path class="st1" d="M23.5 160c-5.5 0-9.9-4.4-9.9-9.9v-104.9c0-5.5 4.4-9.9 9.9-9.9h120.2c5.5 0 9.9 4.4 9.9 9.9v104.9c0 5.5-4.4 9.9-9.9 9.9h-120.2z"/><path class="st2" d="M143.7 36.9c4.6 0 8.3 3.7 8.3 8.3v104.9c0 4.6-3.7 8.3-8.3 8.3h-120.2c-4.6 0-8.3-3.7-8.3-8.3v-104.9c0-4.6 3.7-8.3 8.3-8.3h120.2m0-3.3h-120.2c-6.4 0-11.6 5.2-11.6 11.6v104.9c0 6.4 5.2 11.6 11.6 11.6h120.2c6.4 0 11.6-5.2 11.6-11.6v-104.9c0-6.4-5.2-11.6-11.6-11.6z"/><path class="st3" d="M14.5 60.7h138.8"/><path class="st4" d="M14.5 78.5h138.8M14.5 96h138.8M14.5 112.8h138.8M14.3 129.9h138.7M14.3 146.4h138.7M33 158.8v-98.1M54 158.8v-98.1M74.4 158.8v-98.1M94.9 159.2v-98.1M114.4 158.8v-98.1M135.5 158.8v-98.1"/><path class="st2" d="M22.6 71.5c.1.2.2.3.3.4.1.1.2.2.4.2.1 0 .3.1.5.1h.3s.2-.1.3-.1c.1-.1.2-.1.3-.3.1-.1.1-.2.1-.4s0-.3-.1-.4-.2-.2-.4-.3l-.5-.2-.6-.2-.6-.2c-.2-.1-.4-.2-.5-.3s-.3-.3-.4-.5-.1-.5-.1-.8c0-.3.1-.6.2-.9.1-.2.3-.5.5-.6.2-.2.4-.3.7-.4s.5-.1.7-.1c.3 0 .6 0 .8.1.3.1.5.2.7.4.2.2.4.4.5.7s.2.6.2 1h-1.2c0-.2 0-.4-.1-.5l-.2-.3s-.2-.1-.3-.2h-.7l-.4-.1-.2.2c-.1.1-.1.2-.1.3 0 .1 0 .2.1.3 0 .1.1.2.2.2.1.1.3.1.5.2s.5.2.8.3c.1 0 .2.1.4.1.2.1.4.2.5.3.2.1.3.3.5.6s.2.5.2.9c0 .3 0 .6-.1.8-.1.3-.2.5-.4.7-.2.2-.4.3-.7.4s-.6.2-1 .2c-.3 0-.6 0-.9-.1s-.5-.2-.7-.4c-.2-.2-.4-.4-.5-.7-.1-.3-.2-.6-.2-1h1.2c-.1.2 0 .4 0 .6zM66.4 43.6l2.8 9.1h-1.7l-.6-2h-2.8l-.6 2h-1.7l2.8-9.1h1.8zm.1 5.6l-.9-3.3-1 3.3h1.9zM75.3 52c-.6.6-1.4.9-2.4.9s-1.8-.3-2.4-.9c-.6-.6-.8-1.5-.8-2.8v-5.7h1.6v5.7c0 .2 0 .5.1.7 0 .2.1.4.2.6.1.2.3.3.5.4.2.1.5.2.8.2.6 0 1-.2 1.2-.5s.3-.8.3-1.5v-5.7h1.6v5.7c.2 1.4-.1 2.3-.7 2.9zM82.1 52.7c-.4.2-.7.3-1.1.3-.6 0-1.1-.1-1.5-.4-.5-.2-.8-.6-1.2-1-.3-.4-.6-.9-.7-1.5-.2-.6-.3-1.2-.3-1.9s.1-1.3.3-1.9.4-1.1.7-1.5c.3-.4.7-.8 1.2-1 .5-.2 1-.4 1.5-.4.4 0 .8.1 1.1.2s.7.3 1 .6c.3.3.5.6.7 1 .2.4.3.9.3 1.4h-1.6c-.1-.5-.3-.9-.6-1.1-.3-.3-.6-.4-1-.4s-.7.1-.9.3c-.3.2-.5.4-.6.7s-.3.6-.4 1c-.1.4-.1.8-.1 1.2 0 .4 0 .8.1 1.1.1.4.2.7.4 1s.4.5.6.7c.3.2.6.3.9.3.5 0 1-.2 1.3-.5.3-.3.5-.8.5-1.5h-1.7v-1.5h3.2v4.9h-1.1l-.2-1c-.2.4-.5.7-.8.9zM91.1 52c-.6.6-1.4.9-2.4.9s-1.8-.3-2.4-.9c-.6-.6-.8-1.5-.8-2.8v-5.7h1.6v5.7c0 .2 0 .5.1.7 0 .2.1.4.2.6.1.2.3.3.5.4.2.1.5.2.8.2.6 0 1-.2 1.2-.5s.3-.8.3-1.5v-5.7h1.8v5.7c0 1.4-.3 2.3-.9 2.9zM94.6 50.5c.1.2.2.4.4.5l.5.3c.2.1.4.1.6.1h.5s.3-.1.5-.2.3-.2.4-.4.1-.3.1-.6c0-.2-.1-.4-.2-.6s-.3-.3-.5-.4c-.2-.1-.4-.2-.7-.3l-.8-.3c-.3-.1-.6-.2-.8-.3s-.5-.3-.7-.5c-.2-.2-.4-.4-.5-.7-.1-.3-.2-.6-.2-1.1 0-.5.1-.9.2-1.2l.6-.9c.3-.2.6-.4.9-.5.3-.1.7-.2 1-.2.4 0 .8.1 1.1.2.4.1.7.3 1 .5.3.2.5.5.7.9s.2.8.2 1.3h-1.6c0-.3-.1-.5-.1-.7s-.2-.3-.3-.4c-.1-.1-.3-.2-.5-.2l-.6-.1c-.1 0-.3 0-.4.1-.1 0-.3.1-.4.2l-.3.3c-.1.1-.1.3-.1.5s0 .3.1.4l.3.3c.2.1.4.2.7.3s.7.2 1.1.4c.1 0 .3.1.6.2.2.1.5.2.7.4.2.2.5.5.6.8.2.3.3.7.3 1.3 0 .4-.1.8-.2 1.2-.1.4-.3.7-.6.9-.3.3-.6.5-1 .6s-.8.2-1.3.2c-.4 0-.8-.1-1.2-.2s-.7-.3-1-.6c-.3-.3-.5-.6-.7-1-.2-.4-.3-.9-.3-1.5h1.6c.2.5.2.8.3 1zM99.6 45.3v-1.7h6.1v1.7h-2.2v7.4h-1.7v-7.4h-2.2z"/><path class="st5" d="M77 119.4l11.1-9.1 14.2 30.2 70.7-79.8 12.4 15.1-84.4 75.4z"/><path class="st2" d="M42.6 66.5l1.3 4.5 1.2-4.5h1.7v6.6h-1.1v-4.7l-1.3 4.7h-.9l-1.3-4.6v4.6h-1.1v-6.6h1.5zM62.4 67.7v-1.2h4.4v1.2h-1.6v5.4h-1.2v-5.4h-1.6zM84.8 73.1l-.9-4.5-.9 4.5h-1.2l-1.4-6.6h1.2l.9 4.5.9-4.5h1.1l.9 4.5.9-4.5h1.2l-1.5 6.6h-1.2zM102.1 67.7v-1.2h4.4v1.2h-1.6v5.4h-1.2v-5.4h-1.6zM126.6 66.5v1.2h-2.6v1.5h2.3v1.1h-2.3v2.7h-1.2v-6.6h3.8zM143.1 71.5c.1.2.2.3.3.4.1.1.2.2.4.2.1 0 .3.1.5.1h.3l.3-.1c.1-.1.2-.1.3-.3.1-.1.1-.2.1-.4s0-.3-.1-.4-.2-.2-.4-.3l-.5-.2-.6-.2-.6-.2c-.2-.1-.4-.2-.5-.3-.2-.1-.3-.3-.4-.5s-.1-.5-.1-.8c0-.3.1-.6.2-.9.1-.2.3-.5.5-.6s.4-.3.7-.4c.2-.1.5-.1.7-.1.3 0 .6 0 .8.1s.5.2.7.4c.2.2.4.4.5.7.1.3.2.6.2 1h-1.4c0-.2 0-.4-.1-.5l-.2-.3-.3-.2h-.7l-.3.1-.2.2c-.1.1-.1.2-.1.3 0 .1 0 .2.1.3 0 .1.1.2.2.2.1.1.3.1.5.2s.5.2.8.3c.1 0 .2.1.4.1.2.1.4.2.5.3s.3.3.5.6.2.5.2.9c0 .3 0 .6-.1.8-.1.3-.2.5-.4.7s-.4.3-.7.4c-.3.1-.6.2-1 .2-.3 0-.6 0-.9-.1-.3-.1-.5-.2-.7-.4-.2-.2-.4-.4-.5-.7-.1-.3-.2-.6-.2-1h1.2s0 .2.1.4z"/></svg>