<?xml version="1.0" encoding="utf-8"?>
<!-- Generator: Adobe Illustrator 19.2.0, SVG Export Plug-In . SVG Version: 6.00 Build 0)  -->
<!DOCTYPE svg PUBLIC "-//W3C//DTD SVG 1.1//EN" "http://www.w3.org/Graphics/SVG/1.1/DTD/svg11.dtd">
<svg version="1.1" id="Layer_1" xmlns="http://www.w3.org/2000/svg" xmlns:xlink="http://www.w3.org/1999/xlink" x="0px" y="0px"
	 width="200px" height="200px" viewBox="0 0 200 200" style="enable-background:new 0 0 200 200;" xml:space="preserve">
<style type="text/css">
	.st0{fill:#BBC4C2;stroke:#8B85B5;stroke-miterlimit:10;}
	.st1{fill:#FFFFFF;stroke:#8B85B5;stroke-width:3.8066;stroke-miterlimit:10;}
	.st2{fill:none;stroke:#8B85B5;stroke-width:4.2296;stroke-miterlimit:10;}
	.st3{fill:none;stroke:#8B85B5;stroke-width:4.6239;stroke-miterlimit:10;}
	.st4{fill:#5AC3B7;stroke:#8B85B5;stroke-miterlimit:10;}
	.st5{fill:#8B85B5;stroke:#8B85B5;stroke-miterlimit:10;}
</style>
<g>
	<rect x="17.2" y="48.3" class="st0" width="102.9" height="67.3"/>
	<rect x="17.2" y="48.3" class="st1" width="102.9" height="67.3"/>
	<g>
		<g>
			<polyline class="st2" points="17.2,48.3 68.7,89.7 120.2,48.3 			"/>
		</g>
		<line class="st3" x1="120.2" y1="115.6" x2="77.7" y2="82.4"/>
		<line class="st3" x1="59.7" y1="82.4" x2="17.2" y2="115.6"/>
	</g>
	<rect x="80" y="64.9" class="st4" width="102.9" height="67.3"/>
	<rect x="80" y="64.9" class="st1" width="102.9" height="67.3"/>
	<g>
		<g>
			<polyline class="st2" points="80,64.9 131.5,106.3 182.9,64.9 			"/>
		</g>
		<line class="st3" x1="182.9" y1="132.2" x2="140.5" y2="99"/>
		<line class="st3" x1="122.5" y1="99" x2="80" y2="132.2"/>
	</g>
	<rect x="39.5" y="84.4" class="st5" width="102.9" height="67.3"/>
	<rect x="39.5" y="84.4" class="st1" width="102.9" height="67.3"/>
	<g>
		<g>
			<polyline class="st2" points="39.5,84.4 90.9,125.8 142.4,84.4 			"/>
		</g>
		<line class="st3" x1="142.4" y1="151.8" x2="100" y2="118.6"/>
		<line class="st3" x1="81.9" y1="118.6" x2="39.5" y2="151.8"/>
	</g>
</g>
<g>
</g>
<g>
</g>
<g>
</g>
<g>
</g>
<g>
</g>
<g>
</g>
<g>
</g>
<g>
</g>
<g>
</g>
<g>
</g>
<g>
</g>
<g>
</g>
<g>
</g>
<g>
</g>
<g>
</g>
</svg>
