<svg xmlns="http://www.w3.org/2000/svg" width="200" height="200" viewBox="0 0 200 200"><style type="text/css">.st0{fill:#BBC4C2;stroke:#8B85B5;stroke-miterlimit:10;} .st1{fill:#FFFFFF;stroke:#8B85B5;stroke-width:3.8066;stroke-miterlimit:10;} .st2{fill:none;stroke:#8B85B5;stroke-width:4.2296;stroke-miterlimit:10;} .st3{fill:none;stroke:#8B85B5;stroke-width:4.6239;stroke-miterlimit:10;} .st4{fill:#5AC3B7;stroke:#8B85B5;stroke-miterlimit:10;} .st5{fill:#8B85B5;stroke:#8B85B5;stroke-miterlimit:10;}</style><path class="st0" d="M17.2 48.3h102.9v67.3h-102.9z"/><path class="st1" d="M17.2 48.3h102.9v67.3h-102.9z"/><path class="st2" d="M17.2 48.3l51.5 41.4 51.5-41.4"/><path class="st3" d="M120.2 115.6l-42.5-33.2M59.7 82.4l-42.5 33.2"/><path class="st4" d="M80 64.9h102.9v67.3h-102.9z"/><path class="st1" d="M80 64.9h102.9v67.3h-102.9z"/><path class="st2" d="M80 64.9l51.5 41.4 51.4-41.4"/><path class="st3" d="M182.9 132.2l-42.4-33.2M122.5 99l-42.5 33.2"/><path class="st5" d="M39.5 84.4h102.9v67.3h-102.9z"/><path class="st1" d="M39.5 84.4h102.9v67.3h-102.9z"/><path class="st2" d="M39.5 84.4l51.4 41.4 51.5-41.4"/><path class="st3" d="M142.4 151.8l-42.4-33.2M81.9 118.6l-42.4 33.2"/></svg>