<svg xmlns="http://www.w3.org/2000/svg" width="200" height="200" viewBox="0 0 200 200"><style type="text/css">.st0{fill:#BBC4C2;stroke:#8B85B5;stroke-width:6.9571;stroke-miterlimit:10;} .st1{fill:#8B85B5;} .st2{fill:none;stroke:#8B85B5;stroke-width:3.4785;stroke-linecap:round;stroke-linejoin:round;stroke-dasharray:0,4.1724;} .st3{fill:#83B851;} .st4{fill:none;stroke:#BBC4C2;stroke-width:6.0874;stroke-linecap:round;stroke-linejoin:round;stroke-miterlimit:10;}</style><circle class="st0" cx="99.4" cy="100.6" r="86.7"/><circle class="st1" cx="99.4" cy="100.6" r="73.7"/><circle class="st2" cx="99.4" cy="100.6" r="73.7"/><path class="st3" d="M90.4 85.6c-2.8-1.9-6.6-1-9.2 1.5-1.7 1.6-4.8 3-5.9 1.2-1.1-1.8-2-5.6-2.4-9.4-.4-3.6-.8-7.7-13.6-7.8-11.8 0-14.5.5-18.6-1.6.4 1.9 1.1 3.6 2 4.9 2.3.7 5.3 1.3 8.7.3-2.1 1.5-6.3 1-8.4.4.5 1.1 1 2.4 1.8 3.4 2.2 0 6.8-.9 9.6-2.1-2 1.4-6.4 3.1-9.2 2.8.4 1 1.2 1.8 1.8 2.6 2.5-.6 4.4-1.2 7.3-2.7-2.2 2.8-4.5 2.8-6.6 3.5 3.9 7.6 12.1 11.7 13 13.5.9 1.8-.8 2.5-2.7 5-2.9 3.7-3.3 5-23 3.3 0 1.7-.1 2.9.4 4.7 1.9.7 5.6.9 8.9.8-3.2.6-6.9.7-8.8.1-.1 2.3.3 3.9.8 5.5 3.2-.2 7.2-1.5 10.6-3-2.2 2.5-7.6 4-10.4 4.1.1 1.8.8 3.6 1.7 5 2.8-.6 7.8-2.9 10.2-5.2-1.9 3.3-7.4 6-9.6 6.4.3.8 3.1 4.1 4.5 4.8 2.3-1.7 4.2-3.9 6.3-6.6-.5 1.7-3.5 5.7-5.7 7.4.8 1.2 5.3 3.7 6.3 3.3 1.1-5.3 2.9-8.1 5.3-10.5 3.5-3.5 8.9-5.2 13.6-5.7 4.7-.4 15.5-6.5 20.3-18 1.8-4.3 7.4-7.5 9.8-8-4.4-1.2-5.6-1.7-8.8-3.9zm-2.5 4.3c-.4 0-.6-.4-.6-.8 0-.5.3-.8.6-.8s.6.4.6.8-.3.8-.6.8zM99.6 89.4c2.5.5 8 3.7 9.8 8 4.8 11.6 15.6 17.6 20.3 18 4.7.4 10.1 2.2 13.6 5.7 2.4 2.4 4.2 5.3 5.3 10.5 1.1.3 5.6-2.1 6.3-3.3-2.2-1.7-5.1-5.7-5.7-7.4 2.1 2.8 4 5 6.3 6.6 1.4-.6 4.2-4 4.5-4.8-2.2-.4-7.7-3-9.6-6.4 2.4 2.3 7.4 4.7 10.2 5.2 1-1.4 1.6-3.2 1.7-5-2.8-.1-8.1-1.6-10.4-4.1 3.3 1.5 7.3 2.8 10.6 3 .5-1.6.9-3.2.8-5.5-2 .6-5.7.5-8.8-.1 3.3.1 7-.1 8.9-.8.4-1.8.4-3 .4-4.7-19.6 1.8-20.1.4-23-3.3-1.9-2.5-3.6-3.2-2.7-5 .9-1.8 9.1-5.9 13-13.5-2.1-.6-4.4-.6-6.6-3.5 2.9 1.5 4.8 2 7.3 2.7.7-.8 1.5-1.6 1.8-2.6-2.8.3-7.2-1.4-9.2-2.8 2.8 1.2 7.4 2.1 9.6 2.1.7-1.1 1.2-2.3 1.8-3.4-2.1.5-6.4 1-8.4-.4 3.4 1 6.5.3 8.7-.3.9-1.3 1.6-3 2-4.9-4.1 2.1-6.8 1.6-18.6 1.6-12.8 0-13.2 4.2-13.6 7.8-.4 3.8-1.3 7.6-2.4 9.4-1.1 1.8-4.2.4-5.9-1.2-2.7-2.5-6.4-3.4-9.2-1.5-3.3 2.3-4.5 2.8-8.8 3.9zm10.6-.3c0-.5.3-.8.6-.8.4 0 .6.4.6.8 0 .5-.3.8-.6.8s-.6-.4-.6-.8z"/><path class="st4" d="M101.7 73.6c-5.4-11.6-27.9-32.4-46.7-4.6s24 55.5 42.2 77.1c12.8-14.5 72.2-43.7 44.3-79.7-12.3-15.8-31.6-11.2-39.8 7.2z"/></svg>