<?xml version="1.0" encoding="utf-8"?>
<!-- Generator: Adobe Illustrator 19.2.0, SVG Export Plug-In . SVG Version: 6.00 Build 0)  -->
<!DOCTYPE svg PUBLIC "-//W3C//DTD SVG 1.1//EN" "http://www.w3.org/Graphics/SVG/1.1/DTD/svg11.dtd">
<svg version="1.1" id="Layer_1" xmlns="http://www.w3.org/2000/svg" xmlns:xlink="http://www.w3.org/1999/xlink" x="0px" y="0px"
	 width="200px" height="200px" viewBox="0 0 200 200" style="enable-background:new 0 0 200 200;" xml:space="preserve">
<style type="text/css">
	.st0{fill:#BBC4C2;stroke:#8B85B5;stroke-width:6.9571;stroke-miterlimit:10;}
	.st1{fill:#8B85B5;}
	.st2{fill:none;stroke:#8B85B5;stroke-width:3.4785;stroke-linecap:round;stroke-linejoin:round;stroke-dasharray:0,4.1724;}
	.st3{fill:#83B851;}
	.st4{fill:none;stroke:#BBC4C2;stroke-width:6.0874;stroke-linecap:round;stroke-linejoin:round;stroke-miterlimit:10;}
</style>
<g>
	<circle class="st0" cx="99.4" cy="100.6" r="86.7"/>
	<g>
		<circle class="st1" cx="99.4" cy="100.6" r="73.7"/>
		<circle class="st2" cx="99.4" cy="100.6" r="73.7"/>
	</g>
	<path class="st3" d="M90.4,85.6c-2.8-1.9-6.6-1-9.2,1.5c-1.7,1.6-4.8,3-5.9,1.2c-1.1-1.8-2-5.6-2.4-9.4c-0.4-3.6-0.8-7.7-13.6-7.8
		c-11.8,0-14.5,0.5-18.6-1.6c0.4,1.9,1.1,3.6,2,4.9c2.3,0.7,5.3,1.3,8.7,0.3c-2.1,1.5-6.3,1-8.4,0.4c0.5,1.1,1,2.4,1.8,3.4
		c2.2,0,6.8-0.9,9.6-2.1c-2,1.4-6.4,3.1-9.2,2.8c0.4,1,1.2,1.8,1.8,2.6c2.5-0.6,4.4-1.2,7.3-2.7c-2.2,2.8-4.5,2.8-6.6,3.5
		c3.9,7.6,12.1,11.7,13,13.5c0.9,1.8-0.8,2.5-2.7,5c-2.9,3.7-3.3,5-23,3.3c0,1.7-0.1,2.9,0.4,4.7c1.9,0.7,5.6,0.9,8.9,0.8
		c-3.2,0.6-6.9,0.7-8.8,0.1c-0.1,2.3,0.3,3.9,0.8,5.5c3.2-0.2,7.2-1.5,10.6-3c-2.2,2.5-7.6,4-10.4,4.1c0.1,1.8,0.8,3.6,1.7,5
		c2.8-0.6,7.8-2.9,10.2-5.2c-1.9,3.3-7.4,6-9.6,6.4c0.3,0.8,3.1,4.1,4.5,4.8c2.3-1.7,4.2-3.9,6.3-6.6c-0.5,1.7-3.5,5.7-5.7,7.4
		c0.8,1.2,5.3,3.7,6.3,3.3c1.1-5.3,2.9-8.1,5.3-10.5c3.5-3.5,8.9-5.2,13.6-5.7c4.7-0.4,15.5-6.5,20.3-18c1.8-4.3,7.4-7.5,9.8-8
		C94.8,88.3,93.6,87.8,90.4,85.6z M87.9,89.9c-0.4,0-0.6-0.4-0.6-0.8c0-0.5,0.3-0.8,0.6-0.8s0.6,0.4,0.6,0.8
		C88.5,89.5,88.2,89.9,87.9,89.9z"/>
	<path class="st3" d="M99.6,89.4c2.5,0.5,8,3.7,9.8,8c4.8,11.6,15.6,17.6,20.3,18c4.7,0.4,10.1,2.2,13.6,5.7
		c2.4,2.4,4.2,5.3,5.3,10.5c1.1,0.3,5.6-2.1,6.3-3.3c-2.2-1.7-5.1-5.7-5.7-7.4c2.1,2.8,4,5,6.3,6.6c1.4-0.6,4.2-4,4.5-4.8
		c-2.2-0.4-7.7-3-9.6-6.4c2.4,2.3,7.4,4.7,10.2,5.2c1-1.4,1.6-3.2,1.7-5c-2.8-0.1-8.1-1.6-10.4-4.1c3.3,1.5,7.3,2.8,10.6,3
		c0.5-1.6,0.9-3.2,0.8-5.5c-2,0.6-5.7,0.5-8.8-0.1c3.3,0.1,7-0.1,8.9-0.8c0.4-1.8,0.4-3,0.4-4.7c-19.6,1.8-20.1,0.4-23-3.3
		c-1.9-2.5-3.6-3.2-2.7-5c0.9-1.8,9.1-5.9,13-13.5c-2.1-0.6-4.4-0.6-6.6-3.5c2.9,1.5,4.8,2,7.3,2.7c0.7-0.8,1.5-1.6,1.8-2.6
		c-2.8,0.3-7.2-1.4-9.2-2.8c2.8,1.2,7.4,2.1,9.6,2.1c0.7-1.1,1.2-2.3,1.8-3.4c-2.1,0.5-6.4,1-8.4-0.4c3.4,1,6.5,0.3,8.7-0.3
		c0.9-1.3,1.6-3,2-4.9c-4.1,2.1-6.8,1.6-18.6,1.6c-12.8,0-13.2,4.2-13.6,7.8c-0.4,3.8-1.3,7.6-2.4,9.4c-1.1,1.8-4.2,0.4-5.9-1.2
		c-2.7-2.5-6.4-3.4-9.2-1.5C105.1,87.8,103.9,88.3,99.6,89.4z M110.2,89.1c0-0.5,0.3-0.8,0.6-0.8c0.4,0,0.6,0.4,0.6,0.8
		c0,0.5-0.3,0.8-0.6,0.8C110.5,89.9,110.2,89.5,110.2,89.1z"/>
	<path class="st4" d="M101.7,73.6C96.3,62,73.8,41.2,55,69s24,55.5,42.2,77.1c12.8-14.5,72.2-43.7,44.3-79.7
		C129.2,50.6,109.9,55.2,101.7,73.6z"/>
</g>
<g>
</g>
<g>
</g>
<g>
</g>
<g>
</g>
<g>
</g>
<g>
</g>
<g>
</g>
<g>
</g>
<g>
</g>
<g>
</g>
<g>
</g>
<g>
</g>
<g>
</g>
<g>
</g>
<g>
</g>
</svg>
