<svg xmlns="http://www.w3.org/2000/svg" width="200" height="200" viewBox="0 0 200 200"><style type="text/css">.st0{fill:#FFFFFF;stroke:#8B85B5;stroke-width:7.7584;stroke-miterlimit:10;} .st1{fill:#FFFFFF;stroke:#8B85B5;stroke-width:3.8792;stroke-miterlimit:10;} .st2{fill:#FFFFFF;stroke:#8B85B5;stroke-width:1.2931;stroke-miterlimit:10;}</style><circle class="st0" cx="100.7" cy="99.6" r="81.2"/><circle class="st1" cx="100.7" cy="99.6" r="64.2"/><path class="st2" d="M102.9 96.4c9.4 6.1 32.7-1 37.6 0 15.7 3.2 26.8 18.8 25.3 32.1-1.2 11.2.6 20.4-24.5 27-25 6.6-39-7.4-50.1-16.1s-25-24.4-19.1-35.4 22.7-12.8 30.8-7.6zM104.7 99.8c8.3 5.3 28.9-.9 33.2 0 13.9 2.8 23.6 16.6 22.3 28.4-1.1 9.8.5 18-21.6 23.9-22.1 5.8-34.4-6.5-44.2-14.2s-22.1-21.6-17-31.3 20.1-11.4 27.3-6.8zM95.3 104.5c7.1-.4 7.1 5.7 6 7.2-1 1.5-5.3 3.3-8.8 2.6-10.8-2.3-5.8-9.3 2.8-9.8zM117.5 72c-2.7-3.7-3.2-11.8 2.7-11-.5-3.4-4.7-8.8 1.7-8.3-1.5-6.1 6.6-5.9 5.4 3.2 7.6-4.9 11.8-6.6 11-2.5 7.4 0 5.6 6.6 2.9 8.3 2.9 2 3.9 5.6-3.2 6.6 2.7.7 5.9 4.7-1.2 5.6-7.1 1-3.9-1.2-10.1 2.2-6.1 3.4-6.3 4.9-11.2 8.6l-2.2-1.2 6.1-7.8c-6.8 2.2-5.4-2-1.9-3.7zM120 75.8c2.3-4 9.4-7.7 11.2-2 2.9-1.8 6.2-7.8 8.3-1.8 5-3.8 8.1 3.6-.7 6.2 7.6 4.9 10.8 8.1 6.7 9.1 3 6.7-3.7 7.8-6.4 6.1-.6 3.5-3.6 5.9-7.3-.2.4 2.8-1.9 7.3-5.6 1.2-3.8-6.1-.5-4.1-6.1-8.3-5.6-4.2-7-3.8-12.4-6.8l.2-2.5 9.7 2.4c-5-5.5-.6-5.8 2.4-3.4zM92.1 54.9c2.3-4 9.4-7.7 11.2-2 2.9-1.8 6.2-7.8 8.3-1.8 5-3.8 8.1 3.6-.7 6.2 7.6 4.9 10.8 8.1 6.7 9.1 3 6.7-3.7 7.8-6.4 6.1-.6 3.5-3.6 5.9-7.3-.2.4 2.8-1.9 7.3-5.6 1.2-3.8-6.1-.5-4.1-6.1-8.3-5.6-4.2-7-3.8-12.4-6.8l.2-2.5 9.7 2.4c-4.9-5.5-.5-5.8 2.4-3.4zM90.7 75.8c0-4.6 4.5-11.3 8.8-7.2 1.7-3 1.6-9.9 6.4-5.6 2.5-5.8 8.8-.8 2.4 5.8 9 .6 13.4 1.7 10.3 4.6 5.9 4.4.6 8.7-2.6 8.4 1.2 3.3-.2 6.9-6.5 3.4 1.7 2.2 1.9 7.3-4.4 3.8-6.3-3.5-2.4-3.3-9.4-4.2-7-.9-8 .2-14.1.1l-1.1-2.3 9.6-2.6c-6.9-2.5-3.2-4.9.6-4.2zM62.7 73.8c0-4.6 4.5-11.3 8.8-7.2 1.7-3 1.6-9.9 6.4-5.6 2.5-5.8 8.8-.8 2.4 5.8 9 .6 13.4 1.7 10.3 4.6 5.9 4.4.6 8.7-2.6 8.4 1.2 3.3-.2 6.9-6.5 3.4 1.7 2.2 1.9 7.3-4.4 3.8-6.3-3.5-2.4-3.3-9.4-4.2s-8 .2-14.1.1l-1.1-2.3 9.6-2.6c-6.9-2.4-3.2-4.9.6-4.2zM69.6 73.5c-3.9 2.4-12 2.3-10.8-3.5-3.5.2-9.1 4-8.2-2.3-6.2 1-5.4-7 3.6-5.2-4.3-7.9-5.8-12.2-1.7-11.2.5-7.3 7-5.1 8.5-2.3 2.2-2.8 5.9-3.5 6.4 3.7.9-2.6 5.1-5.5 5.5 1.6.5 7.2-1.5 3.8 1.5 10.2s4.4 6.6 7.8 11.8l-1.4 2.2-7.4-6.7c1.7 7-2.3 5.3-3.8 1.7zM75.9 63.9c-4.2-1.9-8.6-8.7-3.1-10.9-2.1-2.7-8.4-5.4-2.6-8.1-4.3-4.6 2.9-8.4 6.3.1 4.2-8 7-11.5 8.4-7.6 6.4-3.6 8.2 3 6.7 5.8 3.5.3 6.2 3 .5 7.3 2.7-.7 7.4 1.2 1.7 5.5s-4 .9-7.7 6.9-3.1 7.4-5.6 13l-2.5.1 1.5-9.8c-4.9 5.3-5.7.9-3.6-2.3zM104.5 56.5c-4.2-1.9-8.6-8.7-3.1-10.9-2.1-2.7-8.4-5.4-2.6-8.1-4.3-4.6 2.9-8.4 6.3.1 4.2-8 7-11.5 8.4-7.6 6.4-3.6 8.2 3 6.7 5.8 3.5.3 6.2 3 .5 7.3 2.7-.7 7.4 1.2 1.7 5.5s-4 .9-7.7 6.9-3.1 7.4-5.6 13h-2.6l1.5-9.8c-4.8 5.3-5.6.9-3.5-2.2zM140.9 70.2c2.3-4 9.4-7.7 11.2-2 2.9-1.8 6.2-7.8 8.3-1.8 5-3.8 8.1 3.6-.7 6.2 7.6 4.9 10.8 8.1 6.7 9.1 3 6.7-3.7 7.8-6.4 6.1-.6 3.5-3.6 5.9-7.3-.2.4 2.8-1.9 7.3-5.6 1.2s-.5-4.1-6.1-8.3c-5.6-4.2-7-3.8-12.4-6.8l.2-2.5 9.7 2.4c-5-5.5-.6-5.9 2.4-3.4z"/><ellipse class="st2" cx="91.1" cy="56.9" rx="3" ry="5.6"/><ellipse transform="matrix(.384 -.923 .923 .384 30.963 146.24)" class="st2" cx="125.1" cy="49.9" rx="3" ry="5.6"/><ellipse transform="matrix(.708 -.706 .706 .708 -17.921 123.509)" class="st2" cx="140.5" cy="83.4" rx="5.6" ry="3"/><ellipse transform="matrix(.509 -.861 .861 .509 -22.324 135.388)" class="st2" cx="107.6" cy="87.3" rx="3" ry="5.6"/><ellipse transform="matrix(.763 -.646 .646 .763 -34.656 58.302)" class="st2" cx="62.2" cy="76.5" rx="3" ry="5.6"/><path class="st2" d="M76.3 68c1.2-.2 5-1.1 5.9 0s3.1 4.6-.4 4.8c-1.6.1-1.9 0-3.6.3-1.9.5-3-4.9-1.9-5.1zM107.3 51.9c1.2-.2 5-1.1 5.9 0 .9 1.1 3.1 4.6-.4 4.8-1.6.1-1.9 0-3.6.3-1.9.4-3-4.9-1.9-5.1zM63.3 50.7c1.2-.2 5-1.1 5.9 0 .9 1.1 3.1 4.6-.4 4.8-1.6.1-1.9 0-3.6.3-1.9.5-3-4.9-1.9-5.1zM126.2 73.7c1.2-.2 5-1.1 5.9 0 .9 1.1 3.1 4.6-.4 4.8-1.6.1-1.9 0-3.6.3-1.9.4-2.9-4.9-1.9-5.1z"/><path class="st1" d="M65 61.6c1.9-4.8 4.5-9 7.9-12.6s7.5-6.3 12.3-8.3c4.8-2 10.1-3 16-3 7.6 0 14 1 19.1 3.1 5.1 2.1 9.2 4.7 12.3 7.8 3.1 3.1 5.3 6.5 6.7 10.1 1.3 3.6 2 7 2 10.1 0 5.2-.7 9.4-2 12.7-1.3 3.3-3 6.2-5 8.5-2 2.4-4.2 4.4-6.6 6s-4.7 3.3-6.9 5c-2.2 1.7-4.1 3.6-5.7 5.7-1.7 2.2-2.7 4.8-3.1 8.1v6.1h-21.8v-7.3c.3-4.6 1.2-8.5 2.7-11.6 1.5-3.1 3.1-5.8 5.1-8 1.9-2.2 4-4.1 6.1-5.7 2.1-1.6 4.1-3.2 6-4.8 1.8-1.6 3.3-3.4 4.4-5.3 1.1-1.9 1.6-4.4 1.5-7.3 0-4.9-1.2-8.6-3.6-11-2.4-2.4-5.8-3.5-10.1-3.5-2.9 0-5.4.6-7.5 1.7-2.1 1.1-3.8 2.6-5.2 4.5-1.3 1.9-2.3 4.1-3 6.6-.6 2.5-1 5.2-1 8.1h-23.6c.1-5.5 1.1-10.9 3-15.7zm48.2 69.2v24.8h-25.3v-24.8h25.3z"/></svg>