<?xml version="1.0" encoding="utf-8"?>
<!-- Generator: Adobe Illustrator 19.2.0, SVG Export Plug-In . SVG Version: 6.00 Build 0)  -->
<!DOCTYPE svg PUBLIC "-//W3C//DTD SVG 1.1//EN" "http://www.w3.org/Graphics/SVG/1.1/DTD/svg11.dtd">
<svg version="1.1" id="Layer_1" xmlns="http://www.w3.org/2000/svg" xmlns:xlink="http://www.w3.org/1999/xlink" x="0px" y="0px"
	 width="200px" height="200px" viewBox="0 0 200 200" style="enable-background:new 0 0 200 200;" xml:space="preserve">
<style type="text/css">
	.st0{fill:#FFFFFF;stroke:#8B85B5;stroke-width:7.7584;stroke-miterlimit:10;}
	.st1{fill:#FFFFFF;stroke:#8B85B5;stroke-width:3.8792;stroke-miterlimit:10;}
	.st2{fill:#FFFFFF;stroke:#8B85B5;stroke-width:1.2931;stroke-miterlimit:10;}
</style>
<g>
	<circle class="st0" cx="100.7" cy="99.6" r="81.2"/>
	<circle class="st1" cx="100.7" cy="99.6" r="64.2"/>
	<path class="st2" d="M102.9,96.4c9.4,6.1,32.7-1,37.6,0c15.7,3.2,26.8,18.8,25.3,32.1c-1.2,11.2,0.6,20.4-24.5,27
		c-25,6.6-39-7.4-50.1-16.1S66.2,115,72.1,104S94.8,91.2,102.9,96.4z"/>
	<path class="st2" d="M104.7,99.8c8.3,5.3,28.9-0.9,33.2,0c13.9,2.8,23.6,16.6,22.3,28.4c-1.1,9.8,0.5,18-21.6,23.9
		c-22.1,5.8-34.4-6.5-44.2-14.2s-22.1-21.6-17-31.3S97.5,95.2,104.7,99.8z"/>
	<path class="st2" d="M95.3,104.5c7.1-0.4,7.1,5.7,6,7.2c-1,1.5-5.3,3.3-8.8,2.6C81.7,112,86.7,105,95.3,104.5z"/>
	<path class="st2" d="M117.5,72c-2.7-3.7-3.2-11.8,2.7-11c-0.5-3.4-4.7-8.8,1.7-8.3c-1.5-6.1,6.6-5.9,5.4,3.2
		c7.6-4.9,11.8-6.6,11-2.5c7.4,0,5.6,6.6,2.9,8.3c2.9,2,3.9,5.6-3.2,6.6c2.7,0.7,5.9,4.7-1.2,5.6c-7.1,1-3.9-1.2-10.1,2.2
		c-6.1,3.4-6.3,4.9-11.2,8.6l-2.2-1.2l6.1-7.8C112.6,77.9,114,73.7,117.5,72z"/>
	<path class="st2" d="M120,75.8c2.3-4,9.4-7.7,11.2-2c2.9-1.8,6.2-7.8,8.3-1.8c5-3.8,8.1,3.6-0.7,6.2c7.6,4.9,10.8,8.1,6.7,9.1
		c3,6.7-3.7,7.8-6.4,6.1c-0.6,3.5-3.6,5.9-7.3-0.2c0.4,2.8-1.9,7.3-5.6,1.2c-3.8-6.1-0.5-4.1-6.1-8.3c-5.6-4.2-7-3.8-12.4-6.8
		l0.2-2.5l9.7,2.4C112.6,73.7,117,73.4,120,75.8z"/>
	<path class="st2" d="M92.1,54.9c2.3-4,9.4-7.7,11.2-2c2.9-1.8,6.2-7.8,8.3-1.8c5-3.8,8.1,3.6-0.7,6.2c7.6,4.9,10.8,8.1,6.7,9.1
		c3,6.7-3.7,7.8-6.4,6.1c-0.6,3.5-3.6,5.9-7.3-0.2c0.4,2.8-1.9,7.3-5.6,1.2c-3.8-6.1-0.5-4.1-6.1-8.3c-5.6-4.2-7-3.8-12.4-6.8
		l0.2-2.5l9.7,2.4C84.8,52.8,89.2,52.5,92.1,54.9z"/>
	<path class="st2" d="M90.7,75.8c0-4.6,4.5-11.3,8.8-7.2c1.7-3,1.6-9.9,6.4-5.6c2.5-5.8,8.8-0.8,2.4,5.8c9,0.6,13.4,1.7,10.3,4.6
		c5.9,4.4,0.6,8.7-2.6,8.4c1.2,3.3-0.2,6.9-6.5,3.4c1.7,2.2,1.9,7.3-4.4,3.8c-6.3-3.5-2.4-3.3-9.4-4.2c-7-0.9-8,0.2-14.1,0.1
		l-1.1-2.3l9.6-2.6C83.2,77.5,86.9,75.1,90.7,75.8z"/>
	<path class="st2" d="M62.7,73.8c0-4.6,4.5-11.3,8.8-7.2c1.7-3,1.6-9.9,6.4-5.6c2.5-5.8,8.8-0.8,2.4,5.8c9,0.6,13.4,1.7,10.3,4.6
		c5.9,4.4,0.6,8.7-2.6,8.4c1.2,3.3-0.2,6.9-6.5,3.4c1.7,2.2,1.9,7.3-4.4,3.8c-6.3-3.5-2.4-3.3-9.4-4.2s-8,0.2-14.1,0.1l-1.1-2.3
		l9.6-2.6C55.2,75.6,58.9,73.1,62.7,73.8z"/>
	<path class="st2" d="M69.6,73.5c-3.9,2.4-12,2.3-10.8-3.5c-3.5,0.2-9.1,4-8.2-2.3c-6.2,1-5.4-7,3.6-5.2c-4.3-7.9-5.8-12.2-1.7-11.2
		c0.5-7.3,7-5.1,8.5-2.3c2.2-2.8,5.9-3.5,6.4,3.7c0.9-2.6,5.1-5.5,5.5,1.6c0.5,7.2-1.5,3.8,1.5,10.2s4.4,6.6,7.8,11.8l-1.4,2.2
		l-7.4-6.7C75.1,78.8,71.1,77.1,69.6,73.5z"/>
	<path class="st2" d="M75.9,63.9c-4.2-1.9-8.6-8.7-3.1-10.9c-2.1-2.7-8.4-5.4-2.6-8.1c-4.3-4.6,2.9-8.4,6.3,0.1
		c4.2-8,7-11.5,8.4-7.6c6.4-3.6,8.2,3,6.7,5.8c3.5,0.3,6.2,3,0.5,7.3c2.7-0.7,7.4,1.2,1.7,5.5s-4,0.9-7.7,6.9c-3.7,6-3.1,7.4-5.6,13
		L78,76l1.5-9.8C74.6,71.5,73.8,67.1,75.9,63.9z"/>
	<path class="st2" d="M104.5,56.5c-4.2-1.9-8.6-8.7-3.1-10.9c-2.1-2.7-8.4-5.4-2.6-8.1c-4.3-4.6,2.9-8.4,6.3,0.1
		c4.2-8,7-11.5,8.4-7.6c6.4-3.6,8.2,3,6.7,5.8c3.5,0.3,6.2,3,0.5,7.3c2.7-0.7,7.4,1.2,1.7,5.5c-5.7,4.3-4,0.9-7.7,6.9
		s-3.1,7.4-5.6,13l-2.6,0l1.5-9.8C103.2,64,102.4,59.6,104.5,56.5z"/>
	<path class="st2" d="M140.9,70.2c2.3-4,9.4-7.7,11.2-2c2.9-1.8,6.2-7.8,8.3-1.8c5-3.8,8.1,3.6-0.7,6.2c7.6,4.9,10.8,8.1,6.7,9.1
		c3,6.7-3.7,7.8-6.4,6.1c-0.6,3.5-3.6,5.9-7.3-0.2c0.4,2.8-1.9,7.3-5.6,1.2s-0.5-4.1-6.1-8.3c-5.6-4.2-7-3.8-12.4-6.8l0.2-2.5
		l9.7,2.4C133.5,68.1,137.9,67.7,140.9,70.2z"/>
	<ellipse class="st2" cx="91.1" cy="56.9" rx="3" ry="5.6"/>
	<ellipse transform="matrix(0.384 -0.9233 0.9233 0.384 30.9632 146.2397)" class="st2" cx="125.1" cy="49.9" rx="3" ry="5.6"/>
	<ellipse transform="matrix(0.7083 -0.7059 0.7059 0.7083 -17.9208 123.5086)" class="st2" cx="140.5" cy="83.4" rx="5.6" ry="3"/>
	<ellipse transform="matrix(0.5093 -0.8606 0.8606 0.5093 -22.3236 135.3885)" class="st2" cx="107.6" cy="87.3" rx="3" ry="5.6"/>
	<ellipse transform="matrix(0.7634 -0.646 0.646 0.7634 -34.656 58.3017)" class="st2" cx="62.2" cy="76.5" rx="3" ry="5.6"/>
	<path class="st2" d="M76.3,68c1.2-0.2,5-1.1,5.9,0s3.1,4.6-0.4,4.8c-1.6,0.1-1.9,0-3.6,0.3C76.3,73.6,75.2,68.2,76.3,68z"/>
	<path class="st2" d="M107.3,51.9c1.2-0.2,5-1.1,5.9,0c0.9,1.1,3.1,4.6-0.4,4.8c-1.6,0.1-1.9,0-3.6,0.3
		C107.3,57.4,106.2,52.1,107.3,51.9z"/>
	<path class="st2" d="M63.3,50.7c1.2-0.2,5-1.1,5.9,0c0.9,1.1,3.1,4.6-0.4,4.8c-1.6,0.1-1.9,0-3.6,0.3
		C63.3,56.3,62.2,50.9,63.3,50.7z"/>
	<path class="st2" d="M126.2,73.7c1.2-0.2,5-1.1,5.9,0c0.9,1.1,3.1,4.6-0.4,4.8c-1.6,0.1-1.9,0-3.6,0.3
		C126.2,79.2,125.2,73.9,126.2,73.7z"/>
	<g>
		<path class="st1" d="M65,61.6c1.9-4.8,4.5-9,7.9-12.6s7.5-6.3,12.3-8.3c4.8-2,10.1-3,16-3c7.6,0,14,1,19.1,3.1
			c5.1,2.1,9.2,4.7,12.3,7.8c3.1,3.1,5.3,6.5,6.7,10.1c1.3,3.6,2,7,2,10.1c0,5.2-0.7,9.4-2,12.7c-1.3,3.3-3,6.2-5,8.5
			c-2,2.4-4.2,4.4-6.6,6s-4.7,3.3-6.9,5c-2.2,1.7-4.1,3.6-5.7,5.7c-1.7,2.2-2.7,4.8-3.1,8.1v6.1H90.2v-7.3c0.3-4.6,1.2-8.5,2.7-11.6
			c1.5-3.1,3.1-5.8,5.1-8c1.9-2.2,4-4.1,6.1-5.7c2.1-1.6,4.1-3.2,6-4.8c1.8-1.6,3.3-3.4,4.4-5.3c1.1-1.9,1.6-4.4,1.5-7.3
			c0-4.9-1.2-8.6-3.6-11c-2.4-2.4-5.8-3.5-10.1-3.5c-2.9,0-5.4,0.6-7.5,1.7c-2.1,1.1-3.8,2.6-5.2,4.5c-1.3,1.9-2.3,4.1-3,6.6
			c-0.6,2.5-1,5.2-1,8.1H62C62.1,71.8,63.1,66.4,65,61.6z M113.2,130.8v24.8H87.9v-24.8H113.2z"/>
	</g>
</g>
<g>
</g>
<g>
</g>
<g>
</g>
<g>
</g>
<g>
</g>
<g>
</g>
<g>
</g>
<g>
</g>
<g>
</g>
<g>
</g>
<g>
</g>
<g>
</g>
<g>
</g>
<g>
</g>
<g>
</g>
</svg>
