<svg xmlns="http://www.w3.org/2000/svg" width="200" height="200" viewBox="0 0 200 200"><style type="text/css">.st0{fill:#FFFFFF;stroke:#8B85B5;stroke-width:5.4415;stroke-miterlimit:10;} .st1{fill:#FFFFFF;stroke:#8B85B5;stroke-width:1.1466;stroke-miterlimit:10;}</style><path class="st0" d="M16.3 40.4h167.6v119.7h-167.6z"/><path class="st1" d="M29.9 49.5h44.8v44.8h-44.8zM52.3 60.6h44.8v44.8h-44.8zM39.2 76.7h44.8v44.8h-44.8zM105.9 79.7h44.8v44.8h-44.8zM128.3 90.8h44.8v44.8h-44.8zM115.2 106.9h44.8v44.8h-44.8zM176.7 94l-1.3 1.3c-.6.7-2.5-.1-4.5-1.8l-.8-.7c-.3-.3-.5-.5-.7-.8-1.7-1.9-2.6-3.8-2-4.4l1.3-1.3c2.2.2 5.7-3.5 6.4-4.2.5-.5 2.1.3 3.7 1.7 1.5 1.5 2.4 3.1 1.9 3.6-.6.5-3.9 4-4 6.6zM170.9 93.5l-5.5 4.2 3.9-5.7.7.8c.4.3.6.5.9.7zM101.8 63.7l-1.3 1.3c-.6.7-2.5-.1-4.5-1.8l-.8-.7c-.3-.3-.5-.5-.7-.8-1.7-1.9-2.6-3.8-2-4.4l1.3-1.3c2.2.2 5.7-3.5 6.4-4.2.5-.5 2.1.3 3.7 1.7 1.5 1.5 2.4 3.1 1.9 3.6-.5.6-3.9 4.1-4 6.6zM96 63.3l-5.5 4.2 3.9-5.7.7.8c.4.2.7.5.9.7z"/></svg>