<?xml version="1.0" encoding="utf-8"?>
<!-- Generator: Adobe Illustrator 19.2.0, SVG Export Plug-In . SVG Version: 6.00 Build 0)  -->
<!DOCTYPE svg PUBLIC "-//W3C//DTD SVG 1.1//EN" "http://www.w3.org/Graphics/SVG/1.1/DTD/svg11.dtd">
<svg version="1.1" id="Layer_1" xmlns="http://www.w3.org/2000/svg" xmlns:xlink="http://www.w3.org/1999/xlink" x="0px" y="0px"
	 width="200px" height="200px" viewBox="0 0 200 200" style="enable-background:new 0 0 200 200;" xml:space="preserve">
<style type="text/css">
	.st0{fill:#FFFFFF;stroke:#8B85B5;stroke-width:5.4415;stroke-miterlimit:10;}
	.st1{fill:#FFFFFF;stroke:#8B85B5;stroke-width:1.1466;stroke-miterlimit:10;}
</style>
<g>
	<rect x="16.3" y="40.4" class="st0" width="167.6" height="119.7"/>
	<rect x="29.9" y="49.5" class="st1" width="44.8" height="44.8"/>
	<rect x="52.3" y="60.6" class="st1" width="44.8" height="44.8"/>
	<rect x="39.2" y="76.7" class="st1" width="44.8" height="44.8"/>
	<rect x="105.9" y="79.7" class="st1" width="44.8" height="44.8"/>
	<rect x="128.3" y="90.8" class="st1" width="44.8" height="44.8"/>
	<rect x="115.2" y="106.9" class="st1" width="44.8" height="44.8"/>
	<g>
		<path class="st1" d="M176.7,94l-1.3,1.3c-0.6,0.7-2.5-0.1-4.5-1.8c-0.3-0.2-0.5-0.5-0.8-0.7c-0.3-0.3-0.5-0.5-0.7-0.8
			c-1.7-1.9-2.6-3.8-2-4.4l1.3-1.3c2.2,0.2,5.7-3.5,6.4-4.2c0.5-0.5,2.1,0.3,3.7,1.7c1.5,1.5,2.4,3.1,1.9,3.6
			C180.1,87.9,176.8,91.4,176.7,94z"/>
		<path class="st1" d="M170.9,93.5l-5.5,4.2l3.9-5.7c0.2,0.3,0.5,0.5,0.7,0.8C170.4,93.1,170.6,93.3,170.9,93.5z"/>
	</g>
	<g>
		<path class="st1" d="M101.8,63.7l-1.3,1.3c-0.6,0.7-2.5-0.1-4.5-1.8c-0.3-0.2-0.5-0.5-0.8-0.7c-0.3-0.3-0.5-0.5-0.7-0.8
			c-1.7-1.9-2.6-3.8-2-4.4l1.3-1.3c2.2,0.2,5.7-3.5,6.4-4.2c0.5-0.5,2.1,0.3,3.7,1.7c1.5,1.5,2.4,3.1,1.9,3.6
			C105.3,57.7,101.9,61.2,101.8,63.7z"/>
		<path class="st1" d="M96,63.3l-5.5,4.2l3.9-5.7c0.2,0.3,0.5,0.5,0.7,0.8C95.5,62.8,95.8,63.1,96,63.3z"/>
	</g>
</g>
<g>
</g>
<g>
</g>
<g>
</g>
<g>
</g>
<g>
</g>
<g>
</g>
<g>
</g>
<g>
</g>
<g>
</g>
<g>
</g>
<g>
</g>
<g>
</g>
<g>
</g>
<g>
</g>
<g>
</g>
</svg>
